<svg width="73" height="78" viewBox="0 0 73 78" fill="none" xmlns="http://www.w3.org/2000/svg">
<path fill-rule="evenodd" clip-rule="evenodd" d="M0 34.5961C0 36.5201 0.159544 38.4419 0.478556 40.3348L5.57965 33.683C6.06479 18.1246 19.029 5.54164 34.6788 5.54164C44.9339 5.54164 54.2948 10.8574 59.5736 19.5438L63.1538 14.8726C56.6431 5.54163 46.0688 0 34.6788 0C15.5552 0 0 15.5146 0 34.5961ZM63.2001 40.4686C61.418 49.0547 55.7115 56.5052 47.8392 60.4997L41.7329 68.4692C57.6899 65.194 69.3597 51.1562 69.3597 34.5961C69.3597 33.902 69.3388 33.2034 69.2951 32.5117L63.2001 40.4686ZM4.78209 52.1062C3.72131 50.31 2.82453 48.4229 2.11022 46.4734L25.2555 16.2687L29.6724 19.6394L4.78209 52.1062ZM28.3017 68.5983C30.4027 68.9914 32.543 69.1909 34.6788 69.1909H34.8475L73 19.4262C72.2303 17.5091 71.315 15.6414 70.268 13.8581L28.3017 68.5983Z" fill="#1D1D1D"/>
<path fill-rule="evenodd" clip-rule="evenodd" d="M6.95006 77.019C4.75889 75.7197 2.67399 74.243 0.716424 72.607L43.4822 16.828C45.6365 18.193 47.5755 19.928 49.1749 21.9315L6.95006 77.019Z" fill="#EB717B"/>
</svg>
